<svg width="100" height="100" viewBox="0 0 100 100" xmlns="http://www.w3.org/2000/svg">
  <!-- Admin Icon -->
  <defs>
    <linearGradient id="adminGrad" x1="0%" y1="0%" x2="100%" y2="100%">
      <stop offset="0%" style="stop-color:#DC2626;stop-opacity:1" />
      <stop offset="100%" style="stop-color:#991B1B;stop-opacity:1" />
    </linearGradient>
  </defs>
  
  <!-- Background circle -->
  <circle cx="50" cy="50" r="48" fill="url(#adminGrad)" opacity="0.1" stroke="#DC2626" stroke-width="2"/>
  
  <!-- Admin figure -->
  <!-- Head -->
  <circle cx="50" cy="30" r="12" fill="#DC2626" stroke="#FFFFFF" stroke-width="2"/>
  
  <!-- Body -->
  <rect x="42" y="42" width="16" height="20" fill="#DC2626" stroke="#FFFFFF" stroke-width="2" rx="2"/>
  
  <!-- Tie -->
  <polygon points="49,42 51,42 52,50 48,50" fill="#1F2937" stroke="#FFFFFF" stroke-width="1"/>
  
  <!-- Briefcase -->
  <rect x="65" y="45" width="15" height="12" fill="#8B4513" stroke="#FFFFFF" stroke-width="1.5" rx="2"/>
  <rect x="67" y="47" width="11" height="8" fill="#A0522D"/>
  <circle cx="72.5" cy="51" r="1" fill="#FFD700"/>
  
  <!-- Computer/Monitor -->
  <rect x="20" y="50" width="18" height="12" fill="#1F2937" stroke="#FFFFFF" stroke-width="1.5" rx="1"/>
  <rect x="22" y="52" width="14" height="8" fill="#3B82F6"/>
  <rect x="27" y="62" width="4" height="3" fill="#6B7280"/>
  <rect x="25" y="65" width="8" height="2" fill="#6B7280" rx="1"/>
  
  <!-- Documents -->
  <rect x="35" y="68" width="8" height="10" fill="#FFFFFF" stroke="#DC2626" stroke-width="1"/>
  <line x1="37" y1="71" x2="41" y2="71" stroke="#DC2626" stroke-width="0.5"/>
  <line x1="37" y1="73" x2="41" y2="73" stroke="#DC2626" stroke-width="0.5"/>
  <line x1="37" y1="75" x2="41" y2="75" stroke="#DC2626" stroke-width="0.5"/>
  
  <!-- Text -->
  <text x="50" y="88" text-anchor="middle" font-family="Arial" font-size="8" fill="#DC2626" font-weight="bold">ADMIN</text>
</svg>