<?xml version="1.0" encoding="UTF-8"?>
<svg width="120" height="80" viewBox="0 0 120 80" xmlns="http://www.w3.org/2000/svg">
  <!-- Indian Flag Colors Background -->
  <rect x="0" y="0" width="120" height="26.67" fill="#FF9933"/>
  <rect x="0" y="26.67" width="120" height="26.67" fill="#FFFFFF"/>
  <rect x="0" y="53.34" width="120" height="26.66" fill="#138808"/>
  
  <!-- Ashoka Chakra -->
  <circle cx="60" cy="40" r="10" fill="none" stroke="#000080" stroke-width="1"/>
  <g transform="translate(60,40)">
    <g>
      <line x1="0" y1="-10" x2="0" y2="-8" stroke="#000080" stroke-width="0.5"/>
      <animateTransform attributeName="transform" type="rotate" values="0;360" dur="10s" repeatCount="indefinite"/>
    </g>
    <g transform="rotate(15)">
      <line x1="0" y1="-10" x2="0" y2="-8" stroke="#000080" stroke-width="0.5"/>
    </g>
    <g transform="rotate(30)">
      <line x1="0" y1="-10" x2="0" y2="-8" stroke="#000080" stroke-width="0.5"/>
    </g>
    <g transform="rotate(45)">
      <line x1="0" y1="-10" x2="0" y2="-8" stroke="#000080" stroke-width="0.5"/>
    </g>
    <g transform="rotate(60)">
      <line x1="0" y1="-10" x2="0" y2="-8" stroke="#000080" stroke-width="0.5"/>
    </g>
    <g transform="rotate(75)">
      <line x1="0" y1="-10" x2="0" y2="-8" stroke="#000080" stroke-width="0.5"/>
    </g>
    <g transform="rotate(90)">
      <line x1="0" y1="-10" x2="0" y2="-8" stroke="#000080" stroke-width="0.5"/>
    </g>
    <g transform="rotate(105)">
      <line x1="0" y1="-10" x2="0" y2="-8" stroke="#000080" stroke-width="0.5"/>
    </g>
    <g transform="rotate(120)">
      <line x1="0" y1="-10" x2="0" y2="-8" stroke="#000080" stroke-width="0.5"/>
    </g>
    <g transform="rotate(135)">
      <line x1="0" y1="-10" x2="0" y2="-8" stroke="#000080" stroke-width="0.5"/>
    </g>
    <g transform="rotate(150)">
      <line x1="0" y1="-10" x2="0" y2="-8" stroke="#000080" stroke-width="0.5"/>
    </g>
    <g transform="rotate(165)">
      <line x1="0" y1="-10" x2="0" y2="-8" stroke="#000080" stroke-width="0.5"/>
    </g>
    <g transform="rotate(180)">
      <line x1="0" y1="-10" x2="0" y2="-8" stroke="#000080" stroke-width="0.5"/>
    </g>
    <g transform="rotate(195)">
      <line x1="0" y1="-10" x2="0" y2="-8" stroke="#000080" stroke-width="0.5"/>
    </g>
    <g transform="rotate(210)">
      <line x1="0" y1="-10" x2="0" y2="-8" stroke="#000080" stroke-width="0.5"/>
    </g>
    <g transform="rotate(225)">
      <line x1="0" y1="-10" x2="0" y2="-8" stroke="#000080" stroke-width="0.5"/>
    </g>
    <g transform="rotate(240)">
      <line x1="0" y1="-10" x2="0" y2="-8" stroke="#000080" stroke-width="0.5"/>
    </g>
    <g transform="rotate(255)">
      <line x1="0" y1="-10" x2="0" y2="-8" stroke="#000080" stroke-width="0.5"/>
    </g>
    <g transform="rotate(270)">
      <line x1="0" y1="-10" x2="0" y2="-8" stroke="#000080" stroke-width="0.5"/>
    </g>
    <g transform="rotate(285)">
      <line x1="0" y1="-10" x2="0" y2="-8" stroke="#000080" stroke-width="0.5"/>
    </g>
    <g transform="rotate(300)">
      <line x1="0" y1="-10" x2="0" y2="-8" stroke="#000080" stroke-width="0.5"/>
    </g>
    <g transform="rotate(315)">
      <line x1="0" y1="-10" x2="0" y2="-8" stroke="#000080" stroke-width="0.5"/>
    </g>
    <g transform="rotate(330)">
      <line x1="0" y1="-10" x2="0" y2="-8" stroke="#000080" stroke-width="0.5"/>
    </g>
    <g transform="rotate(345)">
      <line x1="0" y1="-10" x2="0" y2="-8" stroke="#000080" stroke-width="0.5"/>
    </g>
  </g>
  
  <!-- Education Symbol -->
  <path d="M35 65 L40 62 L45 65 L40 68 Z" fill="#000080"/>
  <text x="48" y="68" font-family="Arial" font-size="8" fill="#000080" font-weight="bold">PRAGYADHARA</text>
</svg>