<?xml version="1.0" encoding="UTF-8"?>
<svg width="100" height="100" viewBox="0 0 100 100" xmlns="http://www.w3.org/2000/svg">
  <!-- Ministry of Education Emblem -->
  <circle cx="50" cy="50" r="45" fill="#FF9933" stroke="#138808" stroke-width="2"/>
  <circle cx="50" cy="50" r="35" fill="#FFFFFF"/>
  
  <!-- Ashoka Chakra -->
  <circle cx="50" cy="35" r="8" fill="none" stroke="#000080" stroke-width="1"/>
  <g transform="translate(50,35)">
    <line x1="0" y1="-8" x2="0" y2="8" stroke="#000080" stroke-width="0.5"/>
    <line x1="-8" y1="0" x2="8" y2="0" stroke="#000080" stroke-width="0.5"/>
    <line x1="-5.66" y1="-5.66" x2="5.66" y2="5.66" stroke="#000080" stroke-width="0.5"/>
    <line x1="-5.66" y1="5.66" x2="5.66" y2="-5.66" stroke="#000080" stroke-width="0.5"/>
  </g>
  
  <!-- Book Symbol -->
  <rect x="40" y="50" width="20" height="15" fill="#138808" rx="2"/>
  <rect x="42" y="52" width="16" height="2" fill="#FFFFFF"/>
  <rect x="42" y="56" width="12" height="1" fill="#FFFFFF"/>
  <rect x="42" y="59" width="14" height="1" fill="#FFFFFF"/>
  
  <!-- Lamp of Knowledge -->
  <ellipse cx="50" cy="72" rx="8" ry="3" fill="#FF9933"/>
  <rect x="49" y="68" width="2" height="8" fill="#FF9933"/>
  <ellipse cx="50" cy="68" rx="1.5" ry="1" fill="#FFD700"/>
  
  <!-- Text -->
  <text x="50" y="85" text-anchor="middle" font-family="Arial" font-size="6" fill="#000080" font-weight="bold">शिक्षा मंत्रालय</text>
  <text x="50" y="92" text-anchor="middle" font-family="Arial" font-size="4" fill="#000080">MINISTRY OF EDUCATION</text>
</svg>